<svg xmlns="http://www.w3.org/2000/svg" viewBox="0 0 160 160" width="160" height="160">
  <path d="M109.61,65L86.45,136.83a10.69,10.69,0,0,1-13.52,7l-25.41-8.46A10.94,10.94,0,0,1,40.7,121.6L63,52.36a30.93,30.93,0,0,1,14.68,1c7.47,2.5,9.83,6.81,17.52,9.67A33.93,33.93,0,0,0,109.61,65Z" style="fill: #fff;fill-opacity: 0.4129999876022339"/>
  <path d="M103.48,32.87L90.42,28.72A2.92,2.92,0,0,1,88.48,25l2.3-6.79a3.05,3.05,0,0,1,3.83-1.88l13.06,4.15a2.92,2.92,0,0,1,1.94,3.71l-2.3,6.8A3.05,3.05,0,0,1,103.48,32.87Zm-47.1,50L98.3,96.66l5.52-16.91L61.9,66Zm43,18a1.71,1.71,0,0,1-.5-0.09L53.48,85.84a1.86,1.86,0,0,1-1.17-2.34L59,63A1.88,1.88,0,0,1,59.91,62a1.85,1.85,0,0,1,1.4-.11l45.41,14.94a1.82,1.82,0,0,1,1.07.92,1.86,1.86,0,0,1,.11,1.42l-6.67,20.45A1.86,1.86,0,0,1,99.4,100.86Z" style="fill: #fff"/>
  <path d="M92.24,31.65a23.11,23.11,0,0,1-6.95,6.58A24.37,24.37,0,0,1,78.21,41a17.39,17.39,0,0,0-6,2.43,17.1,17.1,0,0,0-5.65,6.76L42.87,122.25a9,9,0,0,0,5.75,11.34L74.48,142a9,9,0,0,0,11.37-5.75l23.78-72.32a16.85,16.85,0,0,0-.6-8.52,17.3,17.3,0,0,0-3.41-5.5,24.31,24.31,0,0,1-4.08-6.39,23.12,23.12,0,0,1-1.69-9.4ZM76.83,146.22a12.72,12.72,0,0,1-3.52-.62l-25.86-8.44a12.74,12.74,0,0,1-8.15-16.08L63.07,48.76a19.44,19.44,0,0,1,14.2-11.41A20.81,20.81,0,0,0,83.35,35a19.94,19.94,0,0,0,6.52-6.6,1.89,1.89,0,0,1,2.18-.79L102.39,31a1.88,1.88,0,0,1,1.29,1.92A19.85,19.85,0,0,0,105,42.09a20.63,20.63,0,0,0,3.51,5.46,20.75,20.75,0,0,1,4,6.62,20.71,20.71,0,0,1,.69,10.69L89.42,137.44A12.82,12.82,0,0,1,76.83,146.22Z" style="fill: #fff"/>
</svg>
