<svg xmlns="http://www.w3.org/2000/svg" width="33" height="40" viewBox="0 0 33 40">
  <g fill="none" fill-rule="evenodd">
    <path fill="#dd2476" d="M16.4988595,0 C7.38833207,0 0,7.45524665 0,16.6522765 C0,22.0364934 2.53425036,26.8220802 6.45994332,29.8658838 L16.4988595,40 L26.5389162,29.8658838 C30.4646091,26.8220802 33,22.0364934 33,16.6522765 C33,7.45524665 25.6116679,0 16.4988595,0"/>
    <path fill="#FFF" d="M16.5002286,28.9998857 C9.59570147,28.9998857 4.00022857,23.4023276 4.00022857,16.5016467 C4.00022857,9.59744383 9.59570147,3.99988571 16.5002286,3.99988571 C23.4047557,3.99988571 29.0002286,9.59744383 29.0002286,16.5016467 C29.0002286,23.4023276 23.4047557,28.9998857 16.5002286,28.9998857"/>
    <path fill="#dd2476" fill-rule="nonzero" d="M9.17474036,7.65628107 C11.0325687,8.71262829 12.2854857,10.7098698 12.2854857,13 L10.2854857,13 C10.2854857,10.7117133 8.43091525,8.85714286 6.14262857,8.85714286 C3.85434189,8.85714286 1.99977143,10.7117133 1.99977143,13 L-0.000228571429,13 C-0.000228571429,10.7098131 1.25275042,8.71252944 3.11065471,7.65620265 C2.25101391,6.8483422 1.71405714,5.70104088 1.71405714,4.42857143 C1.71405714,1.98314382 3.69720096,1.59872116e-14 6.14262857,1.59872116e-14 C8.58845604,1.59872116e-14 10.5712,1.98297223 10.5712,4.42857143 C10.5712,5.70113899 10.0343441,6.84844375 9.17474036,7.65628107 Z M8.5712,4.42857143 C8.5712,3.08749019 7.483835,2 6.14262857,2 C4.80177046,2 3.71405714,3.08771332 3.71405714,4.42857143 C3.71405714,5.76942954 4.80177046,6.85714286 6.14262857,6.85714286 C7.483835,6.85714286 8.5712,5.76965267 8.5712,4.42857143 Z" transform="translate(10 9)"/>
  </g>
</svg>
